<svg width="157" height="117" viewBox="0 0 157 117" fill="none" xmlns="http://www.w3.org/2000/svg">
<path fill-rule="evenodd" clip-rule="evenodd" d="M22.43 94.05H19.49V97.21H18.54V88.73H22.43C24.93 88.73 25.97 89.77 25.97 91.41C25.97 93.05 24.92 94.06 22.43 94.06M22.43 89.57H19.49V93.26H22.43C24.11 93.26 25 92.71 25 91.41C25 90.11 24.13 89.57 22.43 89.57Z" fill="#CE1141"/>
<path fill-rule="evenodd" clip-rule="evenodd" d="M33.2499 93.44L36.3299 97.21H35.1399L32.3699 93.64H29.3699V97.21H28.4199V88.73H32.4399C34.6399 88.73 35.6099 89.67 35.6099 91.12C35.6099 92.38 34.8199 93.3 33.2499 93.45M32.4199 89.57H29.3699V92.87H32.2899C33.9299 92.87 34.6299 92.24 34.6299 91.16C34.6299 90.16 33.9899 89.57 32.4099 89.57" fill="#CE1141"/>
<path fill-rule="evenodd" clip-rule="evenodd" d="M42.4005 97.3901C39.0105 97.3901 37.7305 95.7701 37.7305 92.9701C37.7305 90.1701 39.0205 88.5801 42.4005 88.5801C45.7805 88.5801 47.0505 90.1601 47.0505 92.9701C47.0505 95.7801 45.7905 97.3901 42.4005 97.3901ZM42.4005 89.4601C39.7605 89.4601 38.7205 90.5601 38.7205 92.9601C38.7205 95.3601 39.7605 96.4801 42.4005 96.4801C45.0405 96.4801 46.0605 95.3501 46.0605 92.9601C46.0605 90.5701 45.0505 89.4601 42.4005 89.4601Z" fill="#CE1141"/>
<path fill-rule="evenodd" clip-rule="evenodd" d="M50.7303 89.66V92.49H55.8103V93.34H50.7303V97.21H49.7803V88.73H56.7303L56.7403 89.66H50.7303Z" fill="#CE1141"/>
<path fill-rule="evenodd" clip-rule="evenodd" d="M66.3696 96.33L66.3296 97.21H59.0996V88.73H66.0596L66.0896 89.62H60.0396V92.41H65.2696V93.18H60.0396V96.33H66.3696Z" fill="#CE1141"/>
<path fill-rule="evenodd" clip-rule="evenodd" d="M71.4699 97.3901C70.1499 97.3901 69.0699 97.0701 68.1699 96.5901L68.3199 95.7001C69.2699 96.2301 70.2599 96.5301 71.4899 96.5301C73.2799 96.5301 74.2099 95.7501 74.2099 94.8101C74.2099 92.5901 68.2799 94.0801 68.2799 91.0101C68.2799 89.8301 69.2599 88.5801 71.7699 88.5801C72.8999 88.5801 73.9599 88.7801 74.7799 89.1401L74.6299 89.9901C73.6699 89.6401 72.8099 89.4401 71.7699 89.4401C69.8699 89.4401 69.1799 90.2901 69.1799 90.9501C69.1799 93.0801 75.1199 91.5501 75.1199 94.7401C75.1199 96.2001 73.8799 97.4001 71.4699 97.4001" fill="#CE1141"/>
<path fill-rule="evenodd" clip-rule="evenodd" d="M80.0305 97.3901C78.7105 97.3901 77.6405 97.0701 76.7305 96.5901L76.8705 95.7001C77.8205 96.2301 78.8105 96.5301 80.0505 96.5301C81.8405 96.5301 82.7705 95.7501 82.7705 94.8101C82.7705 92.5901 76.8305 94.0801 76.8305 91.0101C76.8305 89.8301 77.8105 88.5801 80.3205 88.5801C81.4505 88.5801 82.5205 88.7801 83.3405 89.1401L83.1905 89.9901C82.2305 89.6401 81.3705 89.4401 80.3305 89.4401C78.4205 89.4401 77.7405 90.2901 77.7405 90.9501C77.7405 93.0801 83.6805 91.5501 83.6805 94.7401C83.6805 96.2001 82.4505 97.4001 80.0305 97.4001" fill="#CE1141"/>
<path d="M87.2901 88.72H86.3301V97.2H87.2901V88.72Z" fill="#CE1141"/>
<path fill-rule="evenodd" clip-rule="evenodd" d="M94.88 97.3901C91.49 97.3901 90.21 95.7701 90.21 92.9701C90.21 90.1701 91.49 88.5801 94.88 88.5801C98.27 88.5801 99.53 90.1601 99.53 92.9701C99.53 95.7801 98.26 97.3901 94.88 97.3901ZM94.88 89.4601C92.25 89.4601 91.2 90.5601 91.2 92.9601C91.2 95.3601 92.24 96.4801 94.88 96.4801C97.52 96.4801 98.54 95.3501 98.54 92.9601C98.54 90.5701 97.52 89.4601 94.88 89.4601Z" fill="#CE1141"/>
<path fill-rule="evenodd" clip-rule="evenodd" d="M110.07 97.21L103.73 90.63L103.14 89.97L103.11 89.99L103.13 90.9V97.21H102.25V88.73H103.16L109.24 95.12L109.85 95.78L109.87 95.75L109.85 94.85L109.84 88.74H110.69V97.21H110.07Z" fill="#CE1141"/>
<path fill-rule="evenodd" clip-rule="evenodd" d="M120.74 95.07H114.88L113.77 97.2H112.73L117.29 88.72H118.36L122.94 97.2H121.85L120.75 95.07H120.74ZM117.42 90.22L115.31 94.24H120.31L118.24 90.22L117.85 89.41H117.82L117.42 90.22Z" fill="#CE1141"/>
<path fill-rule="evenodd" clip-rule="evenodd" d="M131.8 96.28L131.77 97.21H124.96V88.72H125.9V96.28H131.8Z" fill="#CE1141"/>
<path fill-rule="evenodd" clip-rule="evenodd" d="M136.53 97.3901C135.21 97.3901 134.14 97.0701 133.23 96.5901L133.38 95.7001C134.33 96.2301 135.32 96.5301 136.55 96.5301C138.34 96.5301 139.27 95.7501 139.27 94.8101C139.27 92.5901 133.34 94.0801 133.34 91.0101C133.34 89.8301 134.32 88.5801 136.83 88.5801C137.96 88.5801 139.02 88.7801 139.85 89.1401L139.7 89.9901C138.74 89.6401 137.87 89.4401 136.84 89.4401C134.93 89.4401 134.25 90.2901 134.25 90.9501C134.25 93.0801 140.18 91.5501 140.18 94.7401C140.18 96.2001 138.94 97.4001 136.53 97.4001" fill="#CE1141"/>
<path fill-rule="evenodd" clip-rule="evenodd" d="M39.73 79.03C39.38 78.06 36.67 70.43 35.25 66.47C35.28 66.53 34.86 64.85 33.76 64.83C33.43 64.77 31.31 64.78 31.31 64.78C31.31 64.78 30.12 64.6 29.43 66.49C27.99 70.45 25.25 78.03 24.9 79.01C24.44 77.58 20.27 64.5 20.27 64.5H16L22.66 85.07H26.65C26.65 85.07 31.79 71.56 32.29 70.27C32.77 71.57 37.71 85.07 37.71 85.07H41.88L48.75 64.5H44.54C44.54 64.5 40.21 77.62 39.74 79.03" fill="#CE1141"/>
<path fill-rule="evenodd" clip-rule="evenodd" d="M54.9105 80.2301V76.3501H66.7205V72.7501H54.9105V69.2701C54.9105 69.2701 54.9105 68.1501 56.1505 68.1501C58.5805 68.1501 66.4105 68.1501 69.8805 68.1501C71.3605 68.1501 71.5705 64.5601 71.5705 64.5601H55.3305C50.5505 64.5601 50.7205 68.6901 50.7205 68.6901V80.8401C50.7205 80.8401 50.7805 85.0901 55.4305 85.0901H71.7005C71.7005 85.0901 71.8505 81.5801 69.9305 81.4901C66.4405 81.4901 58.8005 81.5001 56.1505 81.5001C54.7605 81.5001 54.9105 80.2301 54.9105 80.2301Z" fill="#CE1141"/>
<path fill-rule="evenodd" clip-rule="evenodd" d="M130.06 66.53C130.06 66.53 129.22 64.5 127.06 64.5H123.72C121.58 64.5 120.72 66.54 120.72 66.54L111.87 85.08H116.66L118.52 81.13H132.26L134.12 85.07H138.91L130.06 66.53ZM119.79 78.01C119.79 78.01 122.65 71.64 124.08 68.93C124.29 68.54 124.67 68.02 125.37 68C126.19 68.02 126.46 68.5 126.68 68.91C128.12 71.61 130.99 78 130.99 78H119.79V78.01Z" fill="#CE1141"/>
<path fill-rule="evenodd" clip-rule="evenodd" d="M78.3195 80.35C78.3195 76.53 78.3195 64.52 78.3195 64.52H74.2695V80.91C74.2695 80.91 74.0495 85.09 78.2895 85.09H91.9495C91.9495 85.09 92.1495 81.53 90.2195 81.53C87.4095 81.53 81.9495 81.53 79.5095 81.53C78.8395 81.53 78.3095 81.02 78.3095 80.36" fill="#CE1141"/>
<path fill-rule="evenodd" clip-rule="evenodd" d="M97.9504 80.35C97.9504 76.53 97.9504 64.51 97.9504 64.51H93.9004V80.9C93.9004 80.9 93.6804 85.08 97.9304 85.08H109.57C109.57 85.08 110.32 83.65 111.3 81.52H99.1704C98.5004 81.52 97.9604 81.01 97.9604 80.35" fill="#CE1141"/>
<path fill-rule="evenodd" clip-rule="evenodd" d="M115.94 44.56C110.11 43.96 101.6 48.18 99.65 48.97C95.51 50.65 91.91 52.21 87.36 52.71C75.75 53.98 69.79 46.39 66.01 43.23C64.6 42.04 63.19 40.83 61.46 40.11C60.57 39.74 59.56 39.45 58.59 39.52C58.28 39.54 57.47 39.64 57.46 40.03C57.46 40.41 58.37 40.26 59.66 41.22C60.86 42.11 62.01 43.06 63.05 44.12C64.57 45.68 66.37 47.66 67.94 49.18C75.68 56.71 80.46 56.86 82.57 57.06C92.46 58.02 100.15 53.38 107.16 50.48C115.22 47.14 119.77 47.94 122.09 51.89C122.44 52.5 122.93 52.19 122.81 51.15C122.43 47.93 120.21 45 115.94 44.56Z" fill="#CE1141"/>
<path fill-rule="evenodd" clip-rule="evenodd" d="M49.89 55.1C48.55 53.58 46.65 52.95 44.68 52.64C42.51 52.29 40.3 52.41 38.11 52.53C37.13 52.58 36.01 52.8 35.04 52.62C33.89 52.41 33.91 51.3 34.24 50.4C34.4 49.97 34.81 49.51 34.82 49.05C34.82 48.82 34.74 48.61 34.61 48.42C34.54 48.31 34.45 48.21 34.35 48.13C34.17 47.97 34.13 47.97 34.2 47.72C34.27 47.47 34.4 47.23 34.57 47.04C34.74 46.84 35.03 46.81 35.09 46.52C35.15 46.2 34.9 46.08 34.66 45.97C34.36 45.84 33.63 45.23 33.98 44.91C34.42 44.52 34.71 43.97 34.72 43.38C34.73 42.9 34.53 42.43 34.12 42.15C33.64 41.82 33.04 41.37 32.94 40.76C32.89 40.47 33.86 39.96 34.1 39.8C34.65 39.42 37.9 37.09 38.53 35.96C39.14 34.87 39.01 33.47 39.26 32.27C39.89 29.25 43.33 27.41 43.66 27.17C44.11 26.84 44.36 26.35 44.7 25.92C46.48 23.69 49.3 23.01 52.09 23.07C56.31 23.17 59.89 25.79 63.18 28.11C66.82 30.67 70.45 33.23 74.26 35.56C84.95 42.09 91.5 38.21 99.4 34.78C109.02 30.6 111.78 31.7 114.36 34.52C114.82 35.03 115.05 34.43 114.73 33.34C114.07 31.12 111.64 28.35 107.06 28.5C102.61 28.64 95.57 32.08 95.5 32.11C91.45 33.91 86.49 37.07 76.83 32.11C73.41 30.36 70.33 27.97 67.2 25.78C64.02 23.55 60.86 21.3 57.16 19.97C55.43 19.35 53.63 19 51.83 19H51.77C49.86 19 47.96 19.39 46.17 20.24C44.45 21.06 42.83 22.41 42.17 24.23C42.07 24.52 42.02 24.84 41.84 25.09C41.78 25.18 41.7 25.26 41.61 25.33C41.45 25.43 39.78 26.31 38.61 27.49C37.27 28.85 36.67 30.7 36.25 32.51C36.12 33.09 36 33.67 35.9 34.27C35.78 34.94 35.57 35.37 35.08 35.85C34.17 36.76 30.97 38.81 30.47 39.14C30.19 39.32 29.76 39.52 29.58 39.8C29.05 40.63 29.8 41.69 30.37 42.25C30.69 42.56 31.23 42.85 31.28 43.33C31.32 43.73 31.06 44.1 30.78 44.37C30.64 44.51 30.36 44.64 30.34 44.85C30.31 45.09 30.3 45.33 30.35 45.57C30.47 46.11 30.9 46.46 31.34 46.75C30.61 47.06 29.4 48.31 30.34 49.04C30.9 49.47 30.86 49.81 30.7 50.42C30.54 51.03 30.42 51.67 30.4 52.31C30.38 53.36 30.74 54.39 31.74 54.89C32.8 55.41 34.15 55.32 35.3 55.27C39.81 55.07 44.9 53.91 48.72 57C50.23 58.23 51.23 60.48 51.48 60.84C51.66 61.11 52.11 61.07 52.07 60.66C51.84 58.67 51.24 56.62 49.87 55.07" fill="#CE1141"/>
<path fill-rule="evenodd" clip-rule="evenodd" d="M74.3403 45.46C79.8803 48.27 85.5303 50.8 100.61 43.88C100.61 43.88 100.63 43.86 100.69 43.84C110.48 39.35 115.62 38.54 118.91 43.37C119.15 43.73 119.66 43.6 119.41 42.36C118.66 38.64 116.13 36.72 112.43 36.39C108.02 36 101.29 39.07 101.29 39.07C89.5003 44.35 86.8603 44.23 82.4003 43.52C75.0603 42.36 66.3903 34.93 63.5503 32.65C60.6903 30.36 57.3003 28.01 53.4203 28.48C52.5203 28.59 51.6403 28.85 50.8603 29.29C50.5703 29.46 49.3903 30.13 49.5703 30.55C49.7003 30.85 50.1603 30.76 50.4103 30.71C50.9103 30.62 51.4103 30.54 51.9103 30.49C54.0903 30.26 57.2103 30.9 60.9403 34.14C65.5503 38.15 69.7603 43.15 74.3303 45.46" fill="#CE1141"/>
</svg>
